linja pali.glyphspackage
{
glyphname = "a-sp";
layers = (
{
hints = (
{
name = _corner.exterior;
origin = (1,2);
type = Corner;
},
{
name = _corner.exterior;
origin = (1,3);
type = Corner;
},
{
name = _corner.interior;
origin = (0,1);
type = Corner;
},
{
name = _corner.interior;
options = 2;
origin = (0,2);
scale = (-1,1);
type = Corner;
}
);
layerId = m01;
shapes = (
{
closed = 1;
nodes = (
(1009,200,l),
(680,200,l),
(680,640,l),
(1009,640,l),
(1120,544,l),
(1120,296,l)
);
},
{
closed = 1;
nodes = (
(1120,744,l),
(1009,840,l),
(480,840,l),
(480,0,l),
(1009,0,l),
(1120,96,l)
);
},
{
closed = 1;
nodes = (
(800,968,l),
(1000,968,l),
(1000,1674,l),
(800,1674,l)
);
},
{
closed = 1;
nodes = (
(1120,0,l),
(1320,0,l),
(1320,840,l),
(1120,840,l)
);
}
);
width = 1800;
}
);
unicode = 989440;
}
{
glyphname = "akesi-sp";
layers = (
{
hints = (
{
name = _corner.interior;
origin = (0,0);
type = Corner;
},
{
name = _corner.interior;
options = 2;
origin = (0,1);
scale = (-1,1);
type = Corner;
},
{
name = _corner.interior;
origin = (0,2);
type = Corner;
},
{
name = _corner.interior;
options = 2;
origin = (0,3);
scale = (-1,1);
type = Corner;
},
{
name = _corner.interior;
origin = (0,4);
type = Corner;
},
{
name = _corner.interior;
options = 2;
origin = (0,5);
scale = (-1,1);
type = Corner;
},
{
name = _corner.interior;
origin = (0,6);
type = Corner;
},
{
name = _corner.interior;
options = 2;
origin = (0,7);
scale = (-1,1);
type = Corner;
},
{
name = _corner.interior;
options = 2;
origin = (1,0);
scale = (-1,1);
type = Corner;
},
{
name = _corner.interior;
origin = (1,1);
type = Corner;
},
{
name = _corner.interior;
options = 2;
origin = (1,2);
scale = (-1,1);
type = Corner;
},
{
name = _corner.interior;
origin = (1,3);
type = Corner;
},
{
name = _corner.interior;
options = 2;
origin = (1,4);
scale = (-1,1);
type = Corner;
},
{
name = _corner.interior;
origin = (1,5);
type = Corner;
},
{
name = _corner.interior;
options = 2;
origin = (1,6);
scale = (-1,1);
type = Corner;
},
{
name = _corner.interior;
origin = (1,7);
type = Corner;
}
);
layerId = m01;
shapes = (
{
closed = 1;
nodes = (
(1334,1121,l),
(1135,1320,l),
(666,1320,l),
(467,1121,l),
(467,199,l),
(666,0,l),
(1135,0,l),
(1334,199,l)
);
},
{
closed = 1;
nodes = (
(1053,200,l),
(748,200,l),
(667,291,l),
(667,1039,l),
(748,1120,l),
(1053,1120,l),
(1134,1039,l),
(1134,281,l)
);
},
{
closed = 1;
nodes = (
(1138,1474,l),
(1338,1474,l),
(1338,1674,l),
(1138,1674,l)
);
},
{
closed = 1;
nodes = (
(463,1474,l),
(663,1474,l),
(663,1674,l),
(463,1674,l)
);
},
{
attr = {
strokeWidth = 200;
};
closed = 0;
nodes = (
(311,870,l),
(1490,870,l)
);
},
{
attr = {
strokeWidth = 200;
};
closed = 0;
nodes = (
(311,460,l),
(1490,460,l)
);
}
);
width = 1800;
}
);
unicode = 989441;
}
{
glyphname = "ala-sp";
layers = (
{
layerId = m01;
shapes = (
{
closed = 1;
nodes = (
(1354,1674,l),
(165,0,l),
(410,0,l),
(1600,1674,l)
);
},
{
closed = 1;
nodes = (
(410,1674,l),
(165,1674,l),
(1354,0,l),
(1600,0,l)
);
}
);
width = 1800;
}
);
unicode = 989442;
}
{
glyphname = "alasa-sp";
layers = (
{
background = {
shapes = (
{
attr = {
strokeWidth = 200;
};
closed = 0;
nodes = (
(394,1674,l),
(394,0,l)
);
},
{
attr = {
strokeWidth = 200;
};
closed = 0;
nodes = (
(474,1574,l),
(763,1574,l),
(1222,837,l),
(763,100,l),
(474,100,l)
);
},
{
attr = {
strokeWidth = 200;
};
closed = 0;
nodes = (
(109,837,l),
(1573,837,l)
);
},
{
attr = {
strokeWidth = 200;
};
closed = 0;
nodes = (
(1325,1235,l),
(1573,837,l),
(1325,439,l)
);
}
);
};
hints = (
{
name = _corner.interior;
origin = (0,0);
type = Corner;
},
{
name = _corner.interior;
origin = (1,1);
type = Corner;
},
{
name = _corner.interior;
origin = (1,3);
type = Corner;
},
{
name = _corner.exterior;
origin = (0,3);
type = Corner;
},
{
name = _corner.exterior;
origin = (0,4);
type = Corner;
},
{
name = _corner.interior;
origin = (1,0);
type = Corner;
},
{
name = _corner.interior;
origin = (1,4);
type = Corner;
},
{
name = _corner.interior;
origin = (0,2);
type = Corner;
}
);
layerId = m01;
shapes = (
{
closed = 1;
nodes = (
(819,0,l),
(1340,837,l),
(819,1674,l),
(294,1674,l),
(294,0,l)
);
},
{
closed = 1;
nodes = (
(494,1474,l),
(707,1474,l),
(1104,837,l),
(707,200,l),
(494,200,l)
);
},
{
closed = 1;
nodes = (
(109,937,l),
(109,737,l),
(1573,737,l),
(1573,937,l)
);
},
{
closed = 1;
nodes = (
(1690.825,837,l),
(1409.872,1287.885,l),
(1240.128,1182.115,l),
(1455.175,837,l),
(1240.128,491.885,l),
(1409.872,386.115,l)
);
}
);
width = 1800;
}
);
unicode = 989443;
}
{
glyphname = "ale-sp";
layers = (
{
hints = (
{
name = _corner.exterior;
origin = (1,0);
type = Corner;
},
{
name = _corner.exterior;
options = 2;
origin = (1,1);
scale = (-1.5,1.5);
type = Corner;
},
{
name = _corner.exterior;
origin = (1,2);
scale = (1.5,1.5);
type = Corner;
},
{
name = _corner.exterior;
options = 2;
origin = (1,3);
scale = (-1,1);
type = Corner;
},
{
name = _corner.exterior;
options = 2;
origin = (3,0);
scale = (-1.5,1.5);
type = Corner;
},
{
name = _corner.exterior;
origin = (3,1);
type = Corner;
},
{
name = _corner.exterior;
options = 2;
origin = (3,2);
scale = (-1,1);
type = Corner;
},
{
name = _corner.exterior;
origin = (3,3);
scale = (1.5,1.5);
type = Corner;
},
{
name = _corner.interior;
origin = (0,0);
type = Corner;
},
{
name = _corner.interior;
options = 2;
origin = (0,1);
scale = (-1,1);
type = Corner;
},
{
name = _corner.interior;
origin = (0,2);
type = Corner;
},
{
name = _corner.interior;
options = 2;
origin = (0,3);
scale = (-1,1);
type = Corner;
},
{
name = _corner.interior;
origin = (2,0);
type = Corner;
},
{
name = _corner.interior;
options = 2;
origin = (2,1);
scale = (-1,1);
type = Corner;
},
{
name = _corner.interior;
origin = (2,2);
type = Corner;
},
{
name = _corner.interior;
options = 2;
origin = (2,3);
scale = (-1,1);
type = Corner;
}
);
layerId = m01;
shapes = (
{
closed = 1;
nodes = (
(800,1024,l),
(800,650,l),
(425,650,l),
(425,1024,l)
);
},
{
closed = 1;
nodes = (
(225,450,l),
(1000,450,l),
(1000,1224,l),
(225,1224,l)
);
},
{
closed = 1;
nodes = (
(1374,1024,l),
(1374,650,l),
(1000,650,l),
(1000,1024,l)
);
},
{
closed = 1;
nodes = (
(800,450,l),
(1574,450,l),
(1574,1224,l),
(800,1224,l)
);
}
);
width = 1800;
}
);
unicode = 989444;
}
{
glyphname = "anpa-sp";
layers = (
{
hints = (
{
name = _corner.exterior;
origin = (0,4);
type = Corner;
},
{
name = _corner.exterior;
origin = (0,5);
type = Corner;
},
{
name = _corner.interior;
origin = (0,0);
type = Corner;
},
{
name = _corner.interior;
options = 2;
origin = (0,1);
scale = (-1,1);
type = Corner;
}
);
layerId = m01;
shapes = (
{
closed = 1;
nodes = (
(1363,845,l),
(437,845,l),
(437,1203,l),
(237,1203,l),
(237,645,l),
(1563,645,l),
(1563,1203,l),
(1363,1203,l)
);
},
{
closed = 1;
nodes = (
(800,306,l),
(1000,306,l),
(1000,506,l),
(800,506,l)
);
}
);
width = 1800;
}
);
unicode = 989445;
}
{
glyphname = "ante-sp";
layers = (
{
hints = (
{
name = _corner.interior;
origin = (0,0);
type = Corner;
},
{
name = _corner.interior;
origin = (0,3);
type = Corner;
},
{
name = _corner.interior;
origin = (1,0);
type = Corner;
},
{
name = _corner.interior;
origin = (1,3);
type = Corner;
}
);
layerId = m01;
shapes = (
{
closed = 1;
nodes = (
(900,1179.203,l),
(266.412,1635.167,l),
(149.588,1472.833,l),
(900,932.797,l),
(1650.412,1472.833,l),
(1533.588,1635.167,l)
);
},
{
closed = 1;
nodes = (
(900,494.797,l),
(1533.588,38.833,l),
(1650.412,201.167,l),
(900,741.203,l),
(149.588,201.167,l),
(266.412,38.833,l)
);
}
);
width = 1800;
}
);
unicode = 989446;
}
{
glyphname = "anu-sp";
layers = (
{
hints = (
{
name = _corner.interior;
origin = (0,4);
type = Corner;
},
{
name = _corner.interior;
origin = (0,7);
type = Corner;
},
{
name = _corner.interior;
origin = (0,1);
type = Corner;
}
);
layerId = m01;
shapes = (
{
closed = 1;
nodes = (
(1270,1626,l),
(900,1061,l),
(530,1626,l),
(291,1626,l),
(800,848,l),
(800,0,l),
(1000,0,l),
(1000,848,l),
(1509,1626,l)
);
}
);
width = 1800;
}
);
unicode = 989447;
}
{
glyphname = "awen-sp";
layers = (
{
hints = (
{
name = _corner.interior;
origin = (0,1);
type = Corner;
},
{
name = _corner.interior;
origin = (0,4);
type = Corner;
},
{
name = _corner.interior;
options = 2;
origin = (0,5);
scale = (-1,1);
type = Corner;
},
{
name = _corner.interior;
origin = (0,6);
type = Corner;
},
{
name = _corner.interior;
origin = (0,9);
type = Corner;
}
);
layerId = m01;
shapes = (
{
closed = 1;
nodes = (
(796,1626,l),
(418.419,226,l),
(216,226,l),
(216,26,l),
(571.581,26,l),
(900,1242.367,l),
(1228.419,26,l),
(1584,26,l),
(1584,226,l),
(1381.581,226,l),
(1004,1626,l)
);
}
);
width = 1800;
}
);
unicode = 989448;
}
{
glyphname = "en-sp";
layers = (
{
layerId = m01;
shapes = (
{
attr = {
strokeWidth = 200;
};
closed = 0;
nodes = (
(229,823,l),
(1571,823,l)
);
},
{
attr = {
strokeWidth = 200;
};
closed = 0;
nodes = (
(900,1494,l),
(900,152,l)
);
}
);
width = 1800;
}
);
unicode = 989450;
}
{
glyphname = "ilo-sp";
layers = (
{
guides = (
{
pos = (111,1626);
}
);
hints = (
{
name = _corner.exterior;
origin = (1,0);
type = Corner;
},
{
name = _corner.exterior;
options = 2;
origin = (1,1);
scale = (-1,1);
type = Corner;
},
{
name = _corner.exterior;
origin = (1,2);
type = Corner;
},
{
name = _corner.exterior;
options = 2;
origin = (1,3);
scale = (-1,1);
type = Corner;
},
{
name = _corner.interior;
origin = (0,0);
type = Corner;
},
{
name = _corner.interior;
options = 2;
origin = (0,1);
scale = (-1,1);
type = Corner;
},
{
name = _corner.interior;
origin = (0,2);
type = Corner;
},
{
name = _corner.interior;
options = 2;
origin = (0,3);
scale = (-1,1);
type = Corner;
}
);
layerId = m01;
shapes = (
{
closed = 1;
nodes = (
(1351,1426,l),
(1351,907,l),
(424,907,l),
(424,1426,l)
);
},
{
closed = 1;
nodes = (
(224,707,l),
(1551,707,l),
(1551,1626,l),
(224,1626,l)
);
},
{
closed = 1;
nodes = (
(800,0,l),
(1000,0,l),
(1000,1526,l),
(800,1526,l)
);
}
);
width = 1800;
}
);
unicode = 989454;
}
{
glyphname = "insa-sp";
layers = (
{
hints = (
{
name = _corner.interior;
origin = (0,0);
type = Corner;
},
{
name = _corner.interior;
options = 2;
origin = (0,1);
scale = (-1,1);
type = Corner;
},
{
name = _corner.exterior;
origin = (0,4);
type = Corner;
},
{
name = _corner.exterior;
origin = (0,5);
type = Corner;
}
);
layerId = m01;
shapes = (
{
closed = 1;
nodes = (
(1363,634,l),
(437,634,l),
(437,992,l),
(237,992,l),
(237,434,l),
(1563,434,l),
(1563,992,l),
(1363,992,l)
);
},
{
closed = 1;
nodes = (
(800,992,l),
(1000,992,l),
(1000,1192,l),
(800,1192,l)
);
}
);
width = 1800;
}
);
unicode = 989455;
}
{
glyphname = "jan-sp";
layers = (
{
hints = (
{
name = _corner.interior;
origin = (0,0);
type = Corner;
},
{
name = _corner.interior;
options = 2;
origin = (0,1);
scale = (-1,1);
type = Corner;
},
{
name = _corner.interior;
origin = (0,2);
type = Corner;
},
{
name = _corner.interior;
options = 2;
origin = (0,3);
scale = (-1,1);
type = Corner;
},
{
name = _corner.exterior;
origin = (1,0);
type = Corner;
},
{
name = _corner.exterior;
options = 2;
origin = (1,1);
scale = (-1,1);
type = Corner;
},
{
name = _corner.exterior;
origin = (1,2);
type = Corner;
},
{
name = _corner.exterior;
origin = (1,3);
type = Corner;
}
);
layerId = m01;
shapes = (
{
closed = 1;
nodes = (
(1287,1426,l),
(1287,654,l),
(513,654,l),
(513,1426,l)
);
},
{
closed = 1;
nodes = (
(313,454,l),
(1487,454,l),
(1487,1626,l),
(313,1626,l)
);
},
{
closed = 1;
nodes = (
(564,562,l),
(165,0,l),
(410,0,l),
(810,562,l)
);
},
{
closed = 1;
nodes = (
(955,562,l),
(1354,0,l),
(1600,0,l),
(1200,562,l)
);
}
);
width = 1800;
}
);
unicode = 989457;
}
{
glyphname = "ken-sp";
layers = (
{
hints = (
{
name = _corner.interior;
origin = (1,5);
type = Corner;
},
{
name = _corner.interior;
origin = (1,8);
type = Corner;
},
{
name = _corner.interior;
origin = (1,0);
type = Corner;
},
{
name = _corner.interior;
origin = (1,13);
type = Corner;
},
{
name = _corner.interior;
origin = (1,9);
type = Corner;
},
{
name = _corner.interior;
origin = (1,12);
type = Corner;
}
);
layerId = m01;
shapes = (
{
closed = 1;
nodes = (
(574,1626,l),
(374,1626,l),
(374,0,l),
(574,0,l)
);
},
{
closed = 1;
nodes = (
(1426,554.421,l),
(1067.421,913,l),
(474,913,l),
(474,713,l),
(1067.421,713,l),
(1426,1071.579,l),
(1426,1626,l),
(1226,1626,l),
(1226,1154.421,l),
(985,913,l),
(474,913,l),
(474,713,l),
(985,713,l),
(1226,471.579,l),
(1226,0,l),
(1426,0,l)
);
}
);
width = 1800;
}
);
unicode = 989464;
}
{
glyphname = "kepeken-sp";
layers = (
{
background = {
shapes = (
{
attr = {
strokeWidth = 200;
};
closed = 0;
nodes = (
(586,0,l),
(586,365,l),
(803,615,l),
(1289,615,l),
(1506,365,l),
(1506,0,l)
);
},
{
attr = {
strokeWidth = 200;
};
closed = 1;
nodes = (
(617,1024,l),
(1475,1024,l),
(1475,1526,l),
(617,1526,l)
);
},
{
attr = {
strokeWidth = 200;
};
closed = 0;
nodes = (
(1049,615,l),
(1049,1526,l)
);
},
{
closed = 1;
nodes = (
(560,0,l),
(642,62,l),
(331,470,l),
(171,348,l),
(437,0,l)
);
}
);
};
hints = (
{
name = _corner.interior;
origin = (1,0);
type = Corner;
},
{
name = _corner.interior;
options = 2;
origin = (1,1);
scale = (-1,1);
type = Corner;
},
{
name = _corner.interior;
origin = (1,2);
type = Corner;
},
{
name = _corner.interior;
options = 2;
origin = (1,3);
scale = (-1,1);
type = Corner;
},
{
name = _corner.exterior;
origin = (2,0);
type = Corner;
},
{
name = _corner.exterior;
options = 2;
origin = (2,1);
scale = (-1,1);
type = Corner;
},
{
name = _corner.exterior;
origin = (2,2);
type = Corner;
},
{
name = _corner.exterior;
options = 2;
origin = (2,3);
scale = (-1,1);
type = Corner;
},
{
name = _corner.interior;
origin = (0,2);
type = Corner;
},
{
name = _corner.interior;
options = 2;
origin = (0,3);
scale = (-1,1);
type = Corner;
},
{
name = _corner.interior;
options = 2;
origin = (0,6);
scale = (-1,1);
type = Corner;
},
{
name = _corner.interior;
origin = (0,7);
type = Corner;
},
{
name = _corner.interior;
origin = (0,0);
type = Corner;
},
{
name = _corner.interior;
options = 2;
origin = (0,1);
scale = (-1,1);
type = Corner;
},
{
name = _corner.interior;
options = 2;
origin = (0,8);
scale = (-1,1);
type = Corner;
},
{
name = _corner.interior;
origin = (0,9);
type = Corner;
}
);
layerId = m01;
shapes = (
{
closed = 1;
nodes = (
(1606,402.347,l),
(1334.617,715,l),
(757.383,715,l),
(486,402.347,l),
(486,0,l),
(686,0,l),
(686,327.653,l),
(848.617,515,l),
(1243.383,515,l),
(1406,327.653,l),
(1406,0,l),
(1606,0,l)
);
},
{
closed = 1;
nodes = (
(1375,1426,l),
(1375,1124,l),
(717,1124,l),
(717,1426,l)
);
},
{
closed = 1;
nodes = (
(517,924,l),
(1575,924,l),
(1575,1626,l),
(517,1626,l)
);
},
{
attr = {
strokeWidth = 200;
};
closed = 0;
nodes = (
(1049,615,l),
(1049,1526,l)
);
},
{
closed = 1;
nodes = (
(560,0,l),
(642,62,l),
(331,470,l),
(171,348,l),
(437,0,l)
);
}
);
width = 1800;
}
);
unicode = 989465;
}
{
glyphname = "la-sp";
layers = (
{
background = {
shapes = (
{
attr = {
strokeWidth = 200;
};
closed = 0;
nodes = (
(548,1526,l),
(880,1526,l),
(1180,1226,l),
(1180,400,l),
(880,100,l),
(548,100,l)
);
}
);
};
hints = (
{
name = _corner.interior;
origin = (0,0);
type = Corner;
},
{
name = _corner.interior;
options = 2;
origin = (0,1);
scale = (-1,1);
type = Corner;
},
{
name = _corner.interior;
origin = (0,2);
type = Corner;
},
{
name = _corner.interior;
options = 2;
origin = (0,3);
scale = (-1,1);
type = Corner;
},
{
name = _corner.interior;
options = 2;
origin = (0,6);
scale = (-1,1);
type = Corner;
},
{
name = _corner.interior;
origin = (0,7);
type = Corner;
},
{
name = _corner.interior;
options = 2;
origin = (0,8);
scale = (-1,1);
type = Corner;
},
{
name = _corner.interior;
origin = (0,9);
type = Corner;
}
);
layerId = m01;
shapes = (
{
closed = 1;
nodes = (
(921.421,0,l),
(1280,358.579,l),
(1280,1267.421,l),
(921.421,1626,l),
(548,1626,l),
(548,1426,l),
(838.579,1426,l),
(1080,1184.579,l),
(1080,441.421,l),
(838.579,200,l),
(548,200,l),
(548,0,l)
);
}
);
width = 1800;
}
);
unicode = 989473;
}
{
glyphname = "li-sp";
layers = (
{
guides = (
{
angle = 90;
pos = (1483,837);
}
);
layerId = m01;
shapes = (
{
closed = 1;
nodes = (
(1638,916,l),
(517,1682,l),
(162,1682,l),
(1400,837,l),
(162,-8,l),
(517,-8,l),
(1638,758,l)
);
}
);
width = 1800;
}
);
unicode = 989479;
}
{
glyphname = "meli-sp";
layers = (
{
hints = (
{
name = _corner.interior;
origin = (0,0);
type = Corner;
},
{
name = _corner.interior;
options = 2;
origin = (0,1);
scale = (-1,1);
type = Corner;
},
{
name = _corner.interior;
origin = (0,2);
type = Corner;
},
{
name = _corner.interior;
options = 2;
origin = (0,3);
scale = (-1,1);
type = Corner;
},
{
name = _corner.exterior;
origin = (1,0);
type = Corner;
},
{
name = _corner.exterior;
options = 2;
origin = (1,1);
scale = (-1,1);
type = Corner;
},
{
name = _corner.exterior;
origin = (1,2);
type = Corner;
},
{
name = _corner.exterior;
options = 2;
origin = (1,3);
scale = (-1,1);
type = Corner;
},
{
name = _corner.interior;
origin = (1,3);
type = Corner;
},
{
name = _corner.interior;
origin = (2,2);
type = Corner;
},
{
name = _corner.interior;
options = 2;
origin = (2,3);
scale = (-1,1);
type = Corner;
},
{
name = _corner.interior;
options = 2;
origin = (2,6);
scale = (-1,1);
type = Corner;
},
{
name = _corner.interior;
origin = (2,7);
type = Corner;
},
{
name = _corner.interior;
origin = (2,0);
type = Corner;
},
{
name = _corner.interior;
options = 2;
origin = (2,1);
scale = (-1,1);
type = Corner;
},
{
name = _corner.interior;
options = 2;
origin = (2,8);
scale = (-1,1);
type = Corner;
},
{
name = _corner.interior;
origin = (2,9);
type = Corner;
}
);
layerId = m01;
shapes = (
{
closed = 1;
nodes = (
(1150,1126,l),
(1150,627,l),
(650,627,l),
(650,1126,l)
);
},
{
closed = 1;
nodes = (
(450,427,l),
(1350,427,l),
(1350,1326,l),
(450,1326,l)
);
},
{
closed = 1;
nodes = (
(1702,1417,l),
(1441,1678,l),
(359,1678,l),
(98,1417,l),
(98,0,l),
(298,0,l),
(298,1335,l),
(441,1478,l),
(1359,1478,l),
(1502,1335,l),
(1502,0,l),
(1702,0,l)
);
}
);
width = 1800;
}
);
unicode = 989491;
}
{
glyphname = "mije-sp";
layers = (
{
hints = (
{
name = _corner.interior;
origin = (0,0);
type = Corner;
},
{
name = _corner.interior;
options = 2;
origin = (0,1);
scale = (-1,1);
type = Corner;
},
{
name = _corner.interior;
origin = (0,2);
type = Corner;
},
{
name = _corner.interior;
options = 2;
origin = (0,3);
scale = (-1,1);
type = Corner;
},
{
name = _corner.exterior;
origin = (1,0);
type = Corner;
},
{
name = _corner.exterior;
options = 2;
origin = (1,1);
scale = (-1,1);
type = Corner;
},
{
name = _corner.exterior;
origin = (1,2);
type = Corner;
},
{
name = _corner.exterior;
origin = (1,3);
type = Corner;
},
{
name = _corner.interior;
origin = (2,1);
type = Corner;
},
{
name = _corner.interior;
options = 2;
origin = (2,2);
scale = (-1,1);
type = Corner;
},
{
name = _corner.interior;
options = 2;
origin = (2,5);
scale = (-1,1);
type = Corner;
},
{
name = _corner.interior;
origin = (2,6);
type = Corner;
},
{
name = _corner.interior;
options = 2;
origin = (3,1);
scale = (-1,1);
type = Corner;
},
{
name = _corner.interior;
origin = (3,2);
type = Corner;
},
{
name = _corner.interior;
origin = (3,5);
type = Corner;
},
{
name = _corner.interior;
options = 2;
origin = (3,6);
scale = (-1,1);
type = Corner;
}
);
layerId = m01;
shapes = (
{
closed = 1;
nodes = (
(1287,1426,l),
(1287,654,l),
(513,654,l),
(513,1426,l)
);
},
{
closed = 1;
nodes = (
(313,454,l),
(1487,454,l),
(1487,1626,l),
(313,1626,l)
);
},
{
closed = 1;
nodes = (
(486,702,l),
(359,702,l),
(98,441,l),
(98,0,l),
(298,0,l),
(298,359,l),
(441,502,l),
(486,502,l)
);
},
{
closed = 1;
nodes = (
(1317,502,l),
(1359,502,l),
(1502,359,l),
(1502,0,l),
(1702,0,l),
(1702,441,l),
(1441,702,l),
(1334,702,l)
);
}
);
width = 1800;
}
);
unicode = 989493;
}
{
glyphname = "nasin-sp";
layers = (
{
layerId = m01;
shapes = (
{
attr = {
strokeWidth = 200;
};
closed = 0;
nodes = (
(900,1626,l),
(900,0,l)
);
},
{
attr = {
strokeWidth = 200;
};
closed = 0;
nodes = (
(400,642,l),
(900,1127,l),
(1400,642,l)
);
}
);
width = 1800;
}
);
unicode = 989503;
}
{
glyphname = "ni-sp";
layers = (
{
background = {
guides = (
{
angle = 90;
pos = (794,299);
},
{
angle = 90;
pos = (994,299);
}
);
shapes = (
{
attr = {
strokeWidth = 200;
};
closed = 0;
nodes = (
(894,1626,l),
(894,42,l)
);
},
{
attr = {
strokeWidth = 200;
};
closed = 0;
nodes = (
(1394,527,l),
(894,42,l),
(394,527,l)
);
}
);
};
layerId = m01;
shapes = (
{
attr = {
strokeWidth = 200;
};
closed = 0;
nodes = (
(900,1626,l),
(900,82,l)
);
},
{
attr = {
strokeWidth = 200;
};
closed = 0;
nodes = (
(1400,567,l),
(900,82,l),
(400,567,l)
);
}
);
width = 1800;
}
);
unicode = 989505;
}
{
glyphname = "o-sp";
layers = (
{
hints = (
{
name = _corner.interior;
origin = (0,0);
type = Corner;
},
{
name = _corner.interior;
options = 2;
origin = (0,1);
scale = (-1,1);
type = Corner;
},
{
name = _corner.exterior;
origin = (2,0);
type = Corner;
},
{
name = _corner.exterior;
options = 2;
origin = (2,1);
scale = (-1,1);
type = Corner;
},
{
name = _corner.exterior;
origin = (2,2);
type = Corner;
},
{
name = _corner.exterior;
options = 2;
origin = (2,3);
scale = (-1,1);
type = Corner;
},
{
name = _corner.interior;
origin = (0,0);
type = Corner;
},
{
name = _corner.interior;
options = 2;
origin = (0,1);
scale = (-1,1);
type = Corner;
},
{
name = _corner.interior;
origin = (0,2);
type = Corner;
},
{
name = _corner.interior;
options = 2;
origin = (0,3);
scale = (-1,1);
type = Corner;
}
);
layerId = m01;
shapes = (
{
closed = 1;
nodes = (
(680,200,l),
(680,640,l),
(1120,640,l),
(1120,200,l)
);
},
{
closed = 1;
nodes = (
(800,968,l),
(1000,968,l),
(1000,1674,l),
(800,1674,l)
);
},
{
closed = 1;
nodes = (
(480,0,l),
(1320,0,l),
(1320,840,l),
(480,840,l)
);
}
);
width = 1800;
}
);
unicode = 989508;
}
{
glyphname = "soweli-sp";
layers = (
{
backgroundImage = {
imagePath = "../../../../var/folders/7_/hlqmqyb10f5__tdzxmpw5nsc0000gn/T/TemporaryItems/NSIRD_screencaptureui_xuAStp/Screenshot 2024-07-25 at 10.41.20 PM.png";
locked = 1;
pos = (-89,-561);
scale = (4.938,4.938);
};
hints = (
{
name = _corner.interior;
origin = (0,1);
type = Corner;
},
{
name = _corner.interior;
options = 2;
origin = (0,2);
scale = (-1,1);
type = Corner;
},
{
name = _corner.interior;
origin = (0,3);
type = Corner;
},
{
name = _corner.interior;
options = 2;
origin = (0,4);
scale = (-1,1);
type = Corner;
},
{
name = _corner.interior;
options = 2;
origin = (0,7);
scale = (-1,1);
type = Corner;
},
{
name = _corner.interior;
origin = (0,8);
type = Corner;
},
{
name = _corner.interior;
options = 2;
origin = (0,9);
scale = (-1,1);
type = Corner;
},
{
name = _corner.interior;
origin = (0,10);
type = Corner;
}
);
layerId = m01;
shapes = (
{
closed = 1;
nodes = (
(1270,344,l),
(1470,344,l),
(1729,603,l),
(1729,1465,l),
(1470,1724,l),
(150,1724,l),
(150,1524,l),
(1388,1524,l),
(1529,1383,l),
(1529,685,l),
(1388,544,l),
(1070,544,l),
(1070,0,l),
(1270,0,l)
);
},
{
closed = 1;
nodes = (
(955,544,l),
(755,544,l),
(755,0,l),
(955,0,l)
);
},
{
closed = 1;
nodes = (
(640,544,l),
(440,544,l),
(440,0,l),
(640,0,l)
);
},
{
closed = 1;
nodes = (
(325,544,l),
(125,544,l),
(125,0,l),
(325,0,l)
);
},
{
closed = 1;
nodes = (
(1090,928,l),
(1290,928,l),
(1290,1128,l),
(1090,1128,l)
);
},
{
closed = 1;
nodes = (
(696,928,l),
(896,928,l),
(896,1128,l),
(696,1128,l)
);
}
);
width = 1800;
}
);
unicode = 989538;
}
{
glyphname = "tenpo-sp";
layers = (
{
hints = (
{
name = _corner.interior;
origin = (0,0);
type = Corner;
},
{
name = _corner.interior;
options = 2;
origin = (0,1);
scale = (-1,1);
type = Corner;
},
{
name = _corner.interior;
origin = (0,2);
type = Corner;
},
{
name = _corner.interior;
options = 2;
origin = (0,3);
scale = (-1,1);
type = Corner;
},
{
name = _corner.interior;
origin = (0,4);
type = Corner;
},
{
name = _corner.interior;
options = 2;
origin = (0,5);
scale = (-1,1);
type = Corner;
},
{
name = _corner.interior;
origin = (0,6);
type = Corner;
},
{
name = _corner.interior;
options = 2;
origin = (0,7);
scale = (-1,1);
type = Corner;
},
{
name = _corner.interior;
options = 2;
origin = (1,0);
scale = (-1,1);
type = Corner;
},
{
name = _corner.interior;
origin = (1,1);
type = Corner;
},
{
name = _corner.interior;
options = 2;
origin = (1,2);
scale = (-1,1);
type = Corner;
},
{
name = _corner.interior;
origin = (1,3);
type = Corner;
},
{
name = _corner.interior;
options = 2;
origin = (1,4);
scale = (-1,1);
type = Corner;
},
{
name = _corner.interior;
origin = (1,5);
type = Corner;
},
{
name = _corner.interior;
options = 2;
origin = (1,6);
scale = (-1,1);
type = Corner;
},
{
name = _corner.interior;
origin = (1,7);
type = Corner;
}
);
layerId = m01;
shapes = (
{
closed = 1;
nodes = (
(1151,1426,l),
(1392,1185,l),
(1392,441,l),
(1151,200,l),
(649,200,l),
(408,441,l),
(408,1185,l),
(649,1426,l)
);
},
{
closed = 1;
nodes = (
(208,1267,l),
(208,359,l),
(567,0,l),
(1233,0,l),
(1592,359,l),
(1592,1267,l),
(1233,1626,l),
(567,1626,l)
);
},
{
attr = {
strokeWidth = 200;
};
closed = 0;
nodes = (
(900,1244,l),
(900,812,l),
(1173,812,l)
);
}
);
width = 1800;
}
);
unicode = 989547;
}
{
glyphname = "toki-sp";
layers = (
{
hints = (
{
name = _corner.exterior;
origin = (1,0);
type = Corner;
},
{
name = _corner.exterior;
options = 2;
origin = (1,1);
scale = (-1,1);
type = Corner;
},
{
name = _corner.exterior;
origin = (1,2);
type = Corner;
},
{
name = _corner.exterior;
options = 2;
origin = (1,3);
scale = (-1,1);
type = Corner;
},
{
name = _corner.interior;
origin = (0,0);
type = Corner;
},
{
name = _corner.interior;
options = 2;
origin = (0,1);
scale = (-1,1);
type = Corner;
},
{
name = _corner.interior;
origin = (0,2);
type = Corner;
},
{
name = _corner.interior;
options = 2;
origin = (0,3);
scale = (-1,1);
type = Corner;
}
);
layerId = m01;
shapes = (
{
closed = 1;
nodes = (
(1183,852,l),
(1183,200,l),
(617,200,l),
(617,852,l)
);
},
{
closed = 1;
nodes = (
(417,0,l),
(1383,0,l),
(1383,1052,l),
(417,1052,l)
);
},
{
closed = 1;
nodes = (
(465,1213,l),
(665,1213,l),
(617,1674,l),
(417,1674,l)
);
},
{
closed = 1;
nodes = (
(803,1213,l),
(1003,1213,l),
(1003,1674,l),
(803,1674,l)
);
},
{
closed = 1;
nodes = (
(1135,1213,l),
(1335,1213,l),
(1383,1674,l),
(1183,1674,l)
);
}
);
width = 1800;
}
);
unicode = 989548;
}
{
glyphname = "tonsi-sp";
layers = (
{
hints = (
{
name = _corner.interior;
origin = (0,0);
type = Corner;
},
{
name = _corner.interior;
options = 2;
origin = (0,1);
scale = (-1,1);
type = Corner;
},
{
name = _corner.interior;
origin = (0,2);
type = Corner;
},
{
name = _corner.interior;
options = 2;
origin = (0,3);
scale = (-1,1);
type = Corner;
},
{
name = _corner.exterior;
origin = (1,0);
type = Corner;
},
{
name = _corner.exterior;
options = 2;
origin = (1,1);
scale = (-1,1);
type = Corner;
},
{
name = _corner.exterior;
origin = (1,2);
type = Corner;
},
{
name = _corner.exterior;
options = 2;
origin = (1,3);
scale = (-1,1);
type = Corner;
}
);
layerId = m01;
shapes = (
{
closed = 1;
nodes = (
(1150,1201,l),
(1150,702,l),
(650,702,l),
(650,1201,l)
);
},
{
closed = 1;
nodes = (
(450,502,l),
(1350,502,l),
(1350,1401,l),
(450,1401,l)
);
},
{
attr = {
strokeHeight = 200;
strokeWidth = 200;
};
closed = 0;
nodes = (
(1700,1471,l),
(1250,1021,l)
);
},
{
attr = {
strokeHeight = 200;
strokeWidth = 200;
};
closed = 0;
nodes = (
(100,1471,l),
(550,1021,l)
);
},
{
attr = {
strokeWidth = 200;
};
closed = 0;
nodes = (
(900,0,l),
(900,538,l)
);
}
);
width = 1800;
}
);
unicode = 989566;
}
{
glyphname = "kijetesantakalu-sp";
layers = (
{
backgroundImage = {
imagePath = "../../../../var/folders/7_/hlqmqyb10f5__tdzxmpw5nsc0000gn/T/TemporaryItems/NSIRD_screencaptureui_livoqB/Screenshot 2024-07-25 at 8.13.25 PM.png";
locked = 1;
pos = (-137,-252);
scale = (10.2612,10.2612);
};
hints = (
{
name = _corner.exterior;
origin = (0,15);
type = Corner;
},
{
name = _corner.exterior;
origin = (0,14);
type = Corner;
},
{
name = _corner.interior;
origin = (0,4);
type = Corner;
},
{
name = _corner.interior;
origin = (0,5);
type = Corner;
},
{
name = _corner.exterior;
origin = (0,17);
type = Corner;
},
{
name = _corner.exterior;
options = 2;
origin = (0,18);
scale = (-1,1);
type = Corner;
},
{
name = _corner.interior;
origin = (0,1);
type = Corner;
},
{
name = _corner.interior;
options = 2;
origin = (0,2);
scale = (-1,1);
type = Corner;
},
{
name = _corner.interior;
origin = (0,3);
type = Corner;
}
);
layerId = m01;
shapes = (
{
closed = 1;
nodes = (
(573,200,l),
(288,200,l),
(288,752,l),
(736,752,l),
(736,1471,l),
(1304,1471,l),
(1304,1262,l),
(1445,1099,l),
(1304,936,l),
(1304,0,l),
(1504,0,l),
(1504,862,l),
(1711,1099,l),
(1504,1336,l),
(1504,1671,l),
(536,1671,l),
(536,952,l),
(88,952,l),
(88,0,l),
(1011,0,l),
(548,533,l),
(398,401,l)
);
},
{
attr = {
strokeWidth = 200;
};
closed = 0;
nodes = (
(1022,438,l),
(1022,0,l)
);
},
{
closed = 1;
nodes = (
(1067,1086,l),
(1267,1086,l),
(1267,1286,l),
(1067,1286,l)
);
},
{
closed = 1;
nodes = (
(793,1086,l),
(993,1086,l),
(993,1286,l),
(793,1286,l)
);
}
);
width = 1800;
}
);
unicode = 989568;
}
{
glyphname = _corner.exterior;
layers = (
{
anchors = (
{
name = origin;
pos = (251,1779);
}
);
layerId = m01;
shapes = (
{
closed = 0;
nodes = (
(451,1779,ls),
(321,1779,o),
(251,1709,o),
(251,1579,cs)
);
}
);
width = 600;
}
);
}
{
glyphname = _corner.interior;
layers = (
{
anchors = (
{
name = origin;
pos = (300,1282);
}
);
layerId = m01;
shapes = (
{
closed = 0;
nodes = (
(300,1257,ls),
(300,1273,o),
(309,1282,o),
(325,1282,cs)
);
}
);
width = 600;
}
);
}
